<?xml version="1.0" encoding="UTF-8" standalone="no"?>
<svg width="20px" height="20px" viewBox="0 0 20 20" version="1.1" xmlns="http://www.w3.org/2000/svg" xmlns:xlink="http://www.w3.org/1999/xlink" xmlns:sketch="http://www.bohemiancoding.com/sketch/ns">
    <title>Untitled</title>
    <description>Created with Sketch (http://www.bohemiancoding.com/sketch)</description>
    <defs></defs>
    <g id="Page-1" stroke="none" stroke-width="1" fill="none" fill-rule="evenodd" sketch:type="MSPage">
        <path d="M19.585,17.5589899 C19.2414,17.1527273 18.9892,16.8266667 18.7868,16.2436364 C18.3678,14.669697 18.8578,12.8658586 18.8578,12.8658586 L18.855,12.8676768 C19.1764,11.8953535 19.3532,10.8561616 19.3532,9.77454545 C19.3532,4.3759596 15.0202,0 9.6766,0 C4.333,0.000202020202 0,4.37616162 0,9.77474747 C0,13.9525253 2.5962,17.5161616 6.2464,18.9147475 L6.2446,18.9149495 C6.2446,18.9149495 6.2674,18.9242424 6.309,18.939798 C6.7874,19.1191919 7.2838,19.2610101 7.7946,19.3628283 C9.7722,19.8133333 13.5834,20.3244444 18.8896,19.4262626 C20.208,19.1979798 20.233,18.3256566 19.585,17.5589899 L19.585,17.5589899 Z" id="Shape" fill="#4990E2" sketch:type="MSShapeGroup"></path>
        <path d="M9,9 L9,6.99703014 C9,6.45303631 9.44771525,6 10,6 C10.5561352,6 11,6.4463856 11,6.99703014 L11,9 L13.0029699,9 C13.5469637,9 14,9.44771525 14,10 C14,10.5561352 13.5536144,11 13.0029699,11 L11,11 L11,13.0029699 C11,13.5469637 10.5522847,14 10,14 C9.44386482,14 9,13.5536144 9,13.0029699 L9,11 L6.99703014,11 C6.45303631,11 6,10.5522847 6,10 C6,9.44386482 6.4463856,9 6.99703014,9 L9,9 Z" id="Rectangle-55" stroke="#FFFFFF" fill="#FFFFFF" sketch:type="MSShapeGroup"></path>
    </g>
</svg>